<?xml version="1.0" encoding="utf-8"?>
<!-- Generator: Adobe Illustrator 18.0.0, SVG Export Plug-In . SVG Version: 6.00 Build 0)  -->
<!DOCTYPE svg PUBLIC "-//W3C//DTD SVG 1.1//EN" "http://www.w3.org/Graphics/SVG/1.1/DTD/svg11.dtd">
<svg version="1.1" xmlns="http://www.w3.org/2000/svg" xmlns:xlink="http://www.w3.org/1999/xlink" x="0px" y="0px"
	 viewBox="0 0 263.6 220.3" style="enable-background:new 0 0 263.6 220.3;" xml:space="preserve">
<g id="Layer_4">
	<g id="iPhone">
		<path style="fill:#202227;" d="M193.4,10.5H71.9c-12,0-21.8,9.8-21.8,21.8v21.2h-1.6v16h1.6V84h-1.6v24.3h1.6v7h-1.6v24.3h1.6
			v54.6h165.1v-162C215.2,20.3,205.4,10.5,193.4,10.5z"/>
		<rect x="58.2" y="50.9" style="fill:#E3EAED;" width="147.2" height="143.1"/>
		<rect x="67.2" y="60.9" style="fill:#FFFFFF;" width="129.2" height="18.1"/>
		<rect x="58.2" y="88.6" style="fill:#FFFFFF;" width="147.2" height="25.8"/>
		<circle style="fill:#ADADAD;" cx="76" cy="102.4" r="8.8"/>
		<path style="fill:#ADADAD;" d="M155.7,161.4h-47.8c-1.6,0-2.8-1.3-2.8-2.8V157c0-1.6,1.3-2.8,2.8-2.8h47.8c1.6,0,2.8,1.3,2.8,2.8
			v1.6C158.5,160.1,157.3,161.4,155.7,161.4z"/>
		<path style="fill:#ADADAD;" d="M171.5,144.6H92.1c-1.6,0-2.8-1.3-2.8-2.8v-7.9c0-1.6,1.3-2.8,2.8-2.8h79.4c1.6,0,2.8,1.3,2.8,2.8
			v7.9C174.3,143.3,173.1,144.6,171.5,144.6z"/>
	</g>
	
		<radialGradient id="Shadow_1_" cx="131.803" cy="191.0544" r="127.3062" gradientTransform="matrix(1 -1.507760e-04 3.035468e-05 0.2013 -5.797097e-03 152.6107)" gradientUnits="userSpaceOnUse">
		<stop  offset="0" style="stop-color:#8C8C8C;stop-opacity:0.7"/>
		<stop  offset="0.1621" style="stop-color:#919191;stop-opacity:0.5866"/>
		<stop  offset="0.3591" style="stop-color:#A0A0A0;stop-opacity:0.4486"/>
		<stop  offset="0.5743" style="stop-color:#B9B9B9;stop-opacity:0.298"/>
		<stop  offset="0.8009" style="stop-color:#DBDBDB;stop-opacity:0.1394"/>
		<stop  offset="1" style="stop-color:#FFFFFF;stop-opacity:0"/>
	</radialGradient>
	<rect id="Shadow" x="7.5" y="194" style="fill:url(#Shadow_1_);" width="248.7" height="34.2"/>
</g>
<g id="Layer_3">
</g>
</svg>
