<?xml version="1.0" encoding="utf-8"?>
<!-- Generator: Adobe Illustrator 18.0.0, SVG Export Plug-In . SVG Version: 6.00 Build 0)  -->
<!DOCTYPE svg PUBLIC "-//W3C//DTD SVG 1.1//EN" "http://www.w3.org/Graphics/SVG/1.1/DTD/svg11.dtd">
<svg version="1.1" xmlns="http://www.w3.org/2000/svg" xmlns:xlink="http://www.w3.org/1999/xlink" x="0px" y="0px"
	 viewBox="0 0 226 190" style="enable-background:new 0 0 226 190;" xml:space="preserve">
<g id="Layer_1" style="display:none;">
</g>
<g id="Layer_11" style="display:none;">
	<rect x="0" y="0" style="display:inline;fill:#1794C6;" width="226" height="190"/>
</g>
<g id="Stand">
	<rect x="91" y="160.4" style="fill:#D6D6D6;" width="49.8" height="20"/>
	<rect x="71.5" y="180.4" style="fill:#E5E5E5;" width="88.9" height="4.2"/>
	<g id="shadow">
		<polygon style="fill:#B7B7B8;" points="90.9,160.4 140.9,176.8 140.9,160.4 		"/>
	</g>
</g>
<g id="Screen">
	<g>
		<path style="fill:#C6C6C5;" d="M213.2,159.2H13.2c-4.4,0-8-3.6-8-8v1.2c0,4.4,3.6,8,8,8h200.1c4.4,0,8-3.6,8-8v-1.2
			C221.2,155.6,217.6,159.2,213.2,159.2z"/>
	</g>
	<g id="Bottom">
		<path style="fill:#E5E5E5;" d="M5.2,134.4v17c0,4.4,3.6,8,8,8h200.1c4.4,0,8-3.6,8-8v-17H5.2z"/>
	</g>
	<path id="Border" style="fill:#050606;" d="M221.2,134.4V11.9c0-4.4-3.6-8-8-8H13.2c-4.4,0-8,3.6-8,8v122.5H221.2z"/>
	<rect id="Display" x="15.8" y="14.1" style="fill:#3683BC;" width="194.9" height="110"/>
</g>
<g id="Layer_5">
</g>
<g id="Photo_Viewer">
	<rect x="51.2" y="31.2" style="fill:#EBF0F2;" width="101.8" height="69.5"/>
	<rect x="56.7" y="36.7" style="fill:#94C9E4;" width="38.9" height="56.8"/>
	<rect x="101" y="36.3" style="fill:#D5DAE4;" width="47.1" height="56.8"/>
	<g id="Menu">
		<path id="Container_1_" style="fill:#F6F8FA;" d="M153,31.4H51.2v-5.5c0-1.1,0.9-2,2-2H151c1.1,0,2,0.9,2,2V31.4z"/>
		<circle id="Close_1_" style="fill:#DD615B;" cx="55.4" cy="27.7" r="1.3"/>
		<circle id="Minimize_1_" style="fill:#DFDE66;" cx="59" cy="27.7" r="1.3"/>
		<circle id="Maximize_1_" style="fill:#70C05F;" cx="62.6" cy="27.7" r="1.3"/>
	</g>
	<polyline id="Mountains_Lines" style="display:none;fill:#FFFFFF;" points="78.9,74.9 84.2,78.7 84.8,78 78.8,73.8 78.8,73.8 
		78.8,73.8 73.8,78.5 71.2,75.9 71.1,75.9 71.1,75.9 65.8,81.2 66.4,81.8 71.2,77.1 73.8,79.7 	"/>
</g>
<g id="Sublime">
	<rect x="86.9" y="47.1" style="fill:#252525;" width="101.8" height="69.4"/>
	<polygon style="fill:#2C2D2D;" points="135.4,51 135.4,47.1 117.6,47.1 117.6,51 113.7,51 113.7,116.5 188.7,116.5 188.7,51 	"/>
	<g id="Menu_1_">
		<path id="Container" style="fill:#F6F8FA;" d="M188.7,47.2H86.9v-5.5c0-1.1,0.9-2,2-2h97.8c1.1,0,2,0.9,2,2V47.2z"/>
		<circle id="Close" style="fill:#DD615B;" cx="91" cy="43.4" r="1.3"/>
		<circle id="Minimize" style="fill:#DFDE66;" cx="94.7" cy="43.4" r="1.3"/>
		<circle id="Maximize" style="fill:#70C05F;" cx="98.3" cy="43.4" r="1.3"/>
	</g>
</g>
<g id="Layer_9">
	<path style="fill:#D1696B;" d="M131.4,58.7H119c-0.6,0-1-0.4-1-1v-0.9c0-0.5,0.4-1,1-1h12.4c0.6,0,1,0.5,1,1v0.9
		C132.4,58.2,132,58.7,131.4,58.7z"/>
	<path style="fill:#BFC372;" d="M147.3,58.7H135c-0.6,0-1-0.4-1-1v-0.9c0-0.5,0.4-1,1-1h12.4c0.6,0,1,0.5,1,1v0.9
		C148.3,58.2,147.9,58.7,147.3,58.7z"/>
	<path style="fill:#EDC17C;" d="M141.7,62.9h-12.4c-0.5,0-1-0.5-1-1V61c0-0.5,0.5-1,1-1h12.4c0.6,0,1,0.5,1,1v0.9
		C142.7,62.4,142.2,62.9,141.7,62.9z"/>
	<path style="fill:#AF97B8;" d="M157.8,62.9h-12.4c-0.6,0-1-0.5-1-1V61c0-0.5,0.4-1,1-1h12.4c0.6,0,1,0.5,1,1v0.9
		C158.8,62.4,158.4,62.9,157.8,62.9z"/>
	<path style="fill:#8ABCB5;" d="M157.8,74.8h-12.4c-0.6,0-1-0.4-1-1v-0.9c0-0.6,0.4-1,1-1h12.4c0.6,0,1,0.4,1,1v0.9
		C158.8,74.3,158.4,74.8,157.8,74.8z"/>
	<path style="fill:#AF97B8;" d="M162.8,74.8h-1.3c-0.5,0-1-0.4-1-1v-0.9c0-0.6,0.5-1,1-1h1.3c0.5,0,1,0.4,1,1v0.9
		C163.8,74.3,163.3,74.8,162.8,74.8z"/>
	<path style="fill:#8ABCB5;" d="M126,62.8h-1.3c-0.6,0-1-0.5-1-1v-0.9c0-0.5,0.4-1,1-1h1.3c0.6,0,1,0.5,1,1v0.9
		C127,62.4,126.5,62.8,126,62.8z"/>
	<path style="fill:#EDC17C;" d="M162.1,66.6h-16.6c-0.6,0-1-0.5-1-1v-0.9c0-0.6,0.4-1,1-1h16.6c0.6,0,1,0.4,1,1v0.9
		C163.1,66.2,162.7,66.6,162.1,66.6z"/>
	<path style="fill:#F9FAFC;" d="M172,66.6h-6.4c-0.6,0-1-0.5-1-1v-0.9c0-0.6,0.4-1,1-1h6.4c0.6,0,1,0.4,1,1v0.9
		C173,66.2,172.6,66.6,172,66.6z"/>
	<path style="fill:#EDC17C;" d="M151.8,70.9h-22.5c-0.5,0-1-0.4-1-1V69c0-0.5,0.5-1,1-1h22.5c0.6,0,1,0.5,1,1v0.9
		C152.8,70.4,152.4,70.9,151.8,70.9z"/>
	<path style="fill:#AF97B8;" d="M178.1,70.9h-22.5c-0.6,0-1-0.4-1-1V69c0-0.5,0.4-1,1-1h22.5c0.6,0,1,0.5,1,1v0.9
		C179.1,70.4,178.6,70.9,178.1,70.9z"/>
</g>
<g id="Layer_9_copy">
	<path style="fill:#BFC372;" d="M135,84.7h12.4c0.6,0,1-0.5,1-1v-0.9c0-0.5-0.4-1-1-1H135c-0.5,0-1,0.5-1,1v0.9
		C134,84.3,134.4,84.7,135,84.7z"/>
	<path style="fill:#8ABCB5;" d="M119,84.7h12.4c0.6,0,1-0.5,1-1v-0.9c0-0.5-0.4-1-1-1H119c-0.6,0-1,0.5-1,1v0.9
		C118,84.3,118.5,84.7,119,84.7z"/>
	<path style="fill:#EDC17C;" d="M139.3,88.9h12.4c0.6,0,1-0.4,1-1V87c0-0.6-0.4-1-1-1h-12.4c-0.6,0-1,0.4-1,1v0.9
		C138.3,88.5,138.7,88.9,139.3,88.9z"/>
	<path style="fill:#D1696B;" d="M139.3,100.8h12.4c0.6,0,1-0.5,1-1v-0.9c0-0.5-0.4-1-1-1h-12.4c-0.6,0-1,0.5-1,1v0.9
		C138.3,100.4,138.7,100.8,139.3,100.8z"/>
	<path style="fill:#8ABCB5;" d="M134.4,100.8h1.3c0.6,0,1-0.5,1-1v-0.9c0-0.5-0.4-1-1-1h-1.3c-0.6,0-1,0.5-1,1v0.9
		C133.4,100.4,133.8,100.8,134.4,100.8z"/>
	<path style="fill:#D1696B;" d="M134.4,88.7h1.3c0.6,0,1-0.4,1-1v-0.9c0-0.5-0.4-1-1-1h-1.3c-0.6,0-1,0.5-1,1v0.9
		C133.4,88.3,133.8,88.7,134.4,88.7z"/>
	<path style="fill:#8ABCB5;" d="M171.2,92.9h1.3c0.6,0,1-0.4,1-1V91c0-0.5-0.4-1-1-1h-1.3c-0.6,0-1,0.5-1,1v0.9
		C170.2,92.5,170.6,92.9,171.2,92.9z"/>
	<path style="fill:#8ABCB5;" d="M135,92.7h16.6c0.6,0,1-0.4,1-1v-0.9c0-0.6-0.4-1-1-1H135c-0.6,0-1,0.4-1,1v0.9
		C134,92.2,134.4,92.7,135,92.7z"/>
	<path style="fill:#EDC17C;" d="M125.1,92.7h6.4c0.6,0,1-0.4,1-1v-0.9c0-0.6-0.4-1-1-1h-6.4c-0.6,0-1,0.4-1,1v0.9
		C124.1,92.2,124.6,92.7,125.1,92.7z"/>
	<path style="fill:#EDC17C;" d="M155.4,92.9h12.4c0.6,0,1-0.4,1-1V91c0-0.5-0.4-1-1-1h-12.4c-0.6,0-1,0.5-1,1v0.9
		C154.4,92.5,154.9,92.9,155.4,92.9z"/>
	<path style="fill:#D1696B;" d="M145.3,96.9h22.5c0.6,0,1-0.5,1-1V95c0-0.5-0.4-1-1-1h-22.5c-0.6,0-1,0.5-1,1v0.9
		C144.3,96.5,144.7,96.9,145.3,96.9z"/>
	<path style="fill:#AF97B8;" d="M119,96.9h22.5c0.6,0,1-0.5,1-1V95c0-0.5-0.4-1-1-1H119c-0.6,0-1,0.5-1,1v0.9
		C118,96.5,118.5,96.9,119,96.9z"/>
</g>
</svg>
